<svg width="23" height="23" viewBox="0 0 23 23" fill="none" xmlns="http://www.w3.org/2000/svg">
<path d="M9.39173 16.7711C9.01798 16.7711 9.08506 16.6273 8.9509 16.2728L7.8584 12.6694L14.6434 8.43359L15.4388 8.64443L14.7776 10.4461L9.39173 16.7711Z" fill="#E7E9EA"/>
<path d="M9.3916 16.7707C9.6791 16.7707 9.80369 16.6366 9.9666 16.4832C10.2158 16.2437 13.4166 13.1291 13.4166 13.1291L11.452 12.6499L9.63119 13.7999L9.3916 16.6749V16.7707Z" fill="#0C95ED"/>
<path d="M9 16.5C9 17 9.62831 16.7937 9.5 16.5C9 15.3555 9 15.3555 9 15.3555L8.23926 12.8291L7.99951 13L9 16.5Z" fill="#0C95ED"/>
<path d="M9.58303 13.8383L14.2214 17.2596C14.7484 17.5471 15.1318 17.4033 15.2659 16.7708L17.1539 7.87746C17.3455 7.10121 16.8568 6.75621 16.3489 6.98621L5.27053 11.2604C4.51345 11.567 4.52303 11.9887 5.13636 12.1708L7.98261 13.062L14.5664 8.91246C14.873 8.7208 15.1605 8.82621 14.9305 9.03705L9.58303 13.8383Z" fill="#0C95ED"/>
</svg>
