<svg width="41" height="41" viewBox="0 0 41 41" fill="none" xmlns="http://www.w3.org/2000/svg">
<path d="M12.875 7.43383C5.77571 11.5326 3.33461 20.6429 7.43336 27.7421C11.5321 34.8414 20.6424 37.2825 27.7417 33.1837C34.8409 29.085 37.282 19.9747 33.1833 12.8754C29.0845 5.77618 19.9742 3.33508 12.875 7.43383ZM26.16 30.4442C20.5714 33.6707 13.3994 31.7495 10.1727 26.1606C6.94593 20.5717 8.86805 13.4 14.4566 10.1734C20.0452 6.94682 27.2172 8.8681 30.444 14.457C33.6707 20.0458 31.7486 27.2176 26.16 30.4442Z" fill="#0C95ED"/>
<path d="M26.7888 16.0373L21.0027 19.3779L16.9862 12.421C16.6482 11.8355 15.8995 11.6349 15.314 11.9729C14.7286 12.3109 14.528 13.0596 14.866 13.6451L19.4946 21.6621C19.8326 22.2475 20.5813 22.4481 21.1667 22.1101L28.0129 18.1575C28.5983 17.8195 28.799 17.0708 28.4609 16.4854C28.1229 15.8999 27.3742 15.6993 26.7888 16.0373Z" fill="#0C95ED"/>
</svg>
