<svg width="47" height="47" viewBox="0 0 47 47" fill="none" xmlns="http://www.w3.org/2000/svg">
<g clip-path="url(#clip0)">
<path d="M11.9158 15.9316H7.13625C6.69627 15.9316 6.33984 16.2881 6.33984 16.7281V21.5076C6.33984 21.9476 6.69627 22.304 7.13625 22.304H11.9158C12.3558 22.304 12.7122 21.9476 12.7122 21.5076V16.7281C12.7122 16.2881 12.3558 15.9316 11.9158 15.9316ZM11.119 20.7108H7.93302V17.5248H11.119V20.7108Z" fill="#0C95ED"/>
<path d="M19.8806 15.9316H15.1011C14.6615 15.9316 14.3047 16.2881 14.3047 16.7281V21.5076C14.3047 21.9476 14.6615 22.304 15.1011 22.304H19.8806C20.3206 22.304 20.6774 21.9476 20.6774 21.5076V16.7281C20.6774 16.2881 20.3206 15.9316 19.8806 15.9316ZM19.0842 20.7108H15.8979V17.5248H19.0842V20.7108Z" fill="#0C95ED"/>
<path d="M27.8478 15.9316H23.0683C22.6283 15.9316 22.2715 16.2881 22.2715 16.7281V21.5076C22.2715 21.9476 22.6283 22.304 23.0683 22.304H27.8474C28.2874 22.304 28.6442 21.9476 28.6442 21.5076V16.7281C28.6442 16.2881 28.2874 15.9316 27.8478 15.9316ZM27.051 20.7108H23.8647V17.5248H27.051V20.7108Z" fill="#0C95ED"/>
<path d="M31.0327 22.304H35.8123C36.2523 22.304 36.6087 21.9476 36.6087 21.5076V16.7281C36.6087 16.2881 36.2523 15.9316 35.8123 15.9316H31.0327C30.5928 15.9316 30.2363 16.2881 30.2363 16.7281V21.5076C30.2363 21.9476 30.5928 22.304 31.0327 22.304ZM31.8295 17.5248H35.0155V20.7108H31.8295V17.5248Z" fill="#0C95ED"/>
<path d="M11.9158 23.8965H7.13625C6.69627 23.8965 6.33984 24.2533 6.33984 24.6933V29.4724C6.33984 29.9124 6.69627 30.2692 7.13625 30.2692H11.9158C12.3558 30.2692 12.7122 29.9124 12.7122 29.4724V24.6933C12.7122 24.2533 12.3558 23.8965 11.9158 23.8965ZM11.119 28.676H7.93302V25.4897H11.119V28.676Z" fill="#0C95ED"/>
<path d="M19.8806 23.8965H15.1011C14.6615 23.8965 14.3047 24.2533 14.3047 24.6933V29.4724C14.3047 29.9124 14.6615 30.2692 15.1011 30.2692H19.8806C20.3206 30.2692 20.6774 29.9124 20.6774 29.4724V24.6933C20.6774 24.2533 20.3206 23.8965 19.8806 23.8965ZM19.0842 28.676H15.8979V25.4897H19.0842V28.676Z" fill="#0C95ED"/>
<path d="M27.8478 23.8965H23.0683C22.6283 23.8965 22.2715 24.2533 22.2715 24.6933V29.4724C22.2715 29.9124 22.6283 30.2692 23.0683 30.2692H27.8474C28.2874 30.2692 28.6442 29.9124 28.6442 29.4724V24.6933C28.6442 24.2533 28.2874 23.8965 27.8478 23.8965ZM27.051 28.676H23.8647V25.4897H27.051V28.676Z" fill="#0C95ED"/>
<path d="M31.0327 30.2692H35.8123C36.2523 30.2692 36.6087 29.9124 36.6087 29.4724V24.6933C36.6087 24.2533 36.2523 23.8965 35.8123 23.8965H31.0327C30.5928 23.8965 30.2363 24.2533 30.2363 24.6933V29.4724C30.2363 29.9124 30.5928 30.2692 31.0327 30.2692ZM31.8295 25.4897H35.0155V28.676H31.8295V25.4897Z" fill="#0C95ED"/>
<path d="M11.9158 31.8623H7.13625C6.69627 31.8623 6.33984 32.2187 6.33984 32.6587V37.4382C6.33984 37.8782 6.69627 38.2347 7.13625 38.2347H11.9158C12.3558 38.2347 12.7122 37.8782 12.7122 37.4382V32.6587C12.7122 32.2187 12.3558 31.8623 11.9158 31.8623ZM11.119 36.6415H7.93302V33.4551H11.119V36.6415Z" fill="#0C95ED"/>
<path d="M19.8806 31.8623H15.1011C14.6615 31.8623 14.3047 32.2187 14.3047 32.6587V37.4382C14.3047 37.8782 14.6615 38.2347 15.1011 38.2347H19.8806C20.3206 38.2347 20.6774 37.8782 20.6774 37.4382V32.6587C20.6774 32.2187 20.3206 31.8623 19.8806 31.8623ZM19.0842 36.6415H15.8979V33.4551H19.0842V36.6415Z" fill="#0C95ED"/>
<path d="M27.8478 31.8623H23.0683C22.6283 31.8623 22.2715 32.2187 22.2715 32.6587V37.4382C22.2715 37.8782 22.6283 38.2347 23.0683 38.2347H27.8474C28.2874 38.2347 28.6442 37.8782 28.6442 37.4382V32.6587C28.6442 32.2187 28.2874 31.8623 27.8478 31.8623ZM27.051 36.6415H23.8647V33.4551H27.051V36.6415Z" fill="#0C95ED"/>
<path d="M41.3889 32.144V3.98277C41.3889 3.54279 41.0321 3.18636 40.5921 3.18636H36.6094V2.38959C36.6094 1.07001 35.5397 0 34.2198 0C32.8999 0 31.8302 1.07001 31.8302 2.38959V3.18636H30.237V2.38959C30.237 1.07001 29.167 0 27.8474 0C26.5275 0 25.4575 1.07001 25.4575 2.38959V3.18636H23.8643V2.38959C23.8643 1.07001 22.7947 0 21.4747 0C20.1548 0 19.0851 1.07001 19.0851 2.38959V3.18636H17.492V2.38959C17.492 1.07001 16.422 0 15.102 0C13.7824 0 12.7124 1.07001 12.7124 2.38959V3.18636H11.1193V2.38959C11.1193 1.07001 10.0496 0 8.72967 0C7.40973 0 6.34008 1.07001 6.34008 2.38959V3.18636H2.35696C1.91734 3.18636 1.56055 3.54279 1.56055 3.98277V42.218C1.56055 42.6579 1.91734 43.0147 2.35696 43.0147H30.5182C32.7138 46.8229 37.5808 48.1302 41.3889 45.935C45.197 43.7394 46.5044 38.8724 44.3092 35.0643C43.6096 33.8508 42.6024 32.8436 41.3889 32.144ZM33.4234 2.38959C33.4234 1.94961 33.7798 1.59318 34.2198 1.59318C34.6598 1.59318 35.0162 1.94961 35.0162 2.38959V5.57594C35.0162 6.01592 34.6598 6.37271 34.2198 6.37271C33.7798 6.37271 33.4234 6.01592 33.4234 5.57594V2.38959ZM27.0507 2.38959C27.0507 1.94961 27.4075 1.59318 27.8474 1.59318C28.2871 1.59318 28.6439 1.94961 28.6439 2.38959V5.57594C28.6439 6.01592 28.2871 6.37271 27.8474 6.37271C27.4075 6.37271 27.0507 6.01592 27.0507 5.57594V2.38959ZM20.6783 2.38959C20.6783 1.94961 21.0347 1.59318 21.4747 1.59318C21.9147 1.59318 22.2711 1.94961 22.2711 2.38959V5.57594C22.2711 6.01592 21.9147 6.37271 21.4747 6.37271C21.0347 6.37271 20.6783 6.01592 20.6783 5.57594V2.38959ZM14.3056 2.38959C14.3056 1.94961 14.6624 1.59318 15.102 1.59318C15.542 1.59318 15.8988 1.94961 15.8988 2.38959V5.57594C15.8988 6.01592 15.542 6.37271 15.102 6.37271C14.6624 6.37271 14.3056 6.01592 14.3056 5.57594V2.38959ZM7.93326 2.38959C7.93326 1.94961 8.28969 1.59318 8.72967 1.59318C9.16965 1.59318 9.52608 1.94961 9.52608 2.38959V5.57594C9.52608 6.01592 9.16965 6.37271 8.72967 6.37271C8.28969 6.37271 7.93326 6.01592 7.93326 5.57594V2.38959ZM3.15372 4.77953H6.34008V5.57594C6.34008 6.89588 7.40973 7.96553 8.72967 7.96553C10.0496 7.96553 11.1193 6.89588 11.1193 5.57594V4.77953H12.7124V5.57594C12.7124 6.89588 13.7824 7.96553 15.102 7.96553C16.422 7.96553 17.492 6.89588 17.492 5.57594V4.77953H19.0851V5.57594C19.0851 6.89588 20.1548 7.96553 21.4747 7.96553C22.7947 7.96553 23.8643 6.89588 23.8643 5.57594V4.77953H25.4575V5.57594C25.4575 6.89588 26.5275 7.96553 27.8474 7.96553C29.167 7.96553 30.237 6.89588 30.237 5.57594V4.77953H31.8302V5.57594C31.8302 6.89588 32.9002 7.96553 34.2198 7.96553C35.5397 7.96553 36.6097 6.89588 36.6097 5.57594V4.77953H39.7957V11.1519H3.15372V4.77953ZM3.15372 41.4215V12.7451H39.7957V31.4333C35.5989 30.1137 31.127 32.4463 29.8074 36.6431C29.3187 38.1983 29.3187 39.8664 29.8074 41.4215H3.15372ZM37.4061 45.4043C33.8867 45.4043 31.0334 42.5514 31.0334 39.032C31.0334 35.5125 33.8867 32.6592 37.4061 32.6592C40.9256 32.6592 43.7785 35.5125 43.7785 39.032C43.7746 42.5496 40.9238 45.4004 37.4061 45.4043Z" fill="#0C95ED"/>
<path d="M40.0943 36.0194L36.6692 38.7611L34.7837 36.8749C34.4725 36.564 33.968 36.564 33.6571 36.8753C33.3458 37.1865 33.3462 37.6911 33.6574 38.0019L36.047 40.3919C36.3339 40.6791 36.7911 40.7042 37.1081 40.4507L41.0908 37.2643C41.4347 36.9897 41.4907 36.488 41.2156 36.1441C40.9406 35.8003 40.4389 35.7443 40.0951 36.0194H40.0943Z" fill="#0C95ED"/>
</g>
<defs>
<clipPath id="clip0">
<rect width="47" height="47" fill="white"/>
</clipPath>
</defs>
</svg>
