<svg width="44" height="47" viewBox="0 0 44 47" fill="none" xmlns="http://www.w3.org/2000/svg">
<path fill-rule="evenodd" clip-rule="evenodd" d="M31.0589 24.3885C28.2225 25.254 26.2123 27.661 25.8301 30.5363C25.8278 30.5363 25.8249 30.5363 25.8226 30.5363C24.9334 30.5363 23.9358 30.6219 22.8849 30.7892C22.3857 30.869 22.0455 31.3385 22.1253 31.8378C22.2049 32.337 22.6735 32.6775 23.1736 32.5977C24.468 32.3911 25.6556 32.3216 26.6083 32.3965C26.8621 32.4166 27.1118 32.3299 27.2989 32.1582C27.4863 31.9866 27.5936 31.7448 27.5956 31.491C27.6154 29.014 29.2218 26.8633 31.5936 26.1398C34.5694 25.2317 37.7305 26.914 38.6389 29.8906C39.5473 32.8672 37.8644 36.0278 34.8881 36.9361C32.5169 37.6597 29.9829 36.7728 28.5835 34.7289C28.4399 34.5189 28.2159 34.3787 27.9647 34.3409C27.7138 34.3026 27.458 34.3709 27.2589 34.5286C25.839 35.6552 23.5541 36.7502 20.9898 37.5327C18.4255 38.3151 15.9183 38.6828 14.1113 38.5409C13.8578 38.5209 13.6081 38.607 13.421 38.7786C13.2336 38.9503 13.126 39.192 13.1243 39.4464C13.1042 41.9232 11.4978 44.0735 9.12599 44.7971C6.14937 45.7055 2.98908 44.0229 2.08071 41.0463C1.64068 39.6043 1.7886 38.0777 2.49699 36.747C3.20538 35.4164 4.38956 34.441 5.83151 34.001C8.20302 33.2769 10.7367 34.1641 12.1361 36.2083C12.2794 36.418 12.5037 36.5585 12.7549 36.5965C13.0058 36.6343 13.2616 36.5665 13.4607 36.4083C14.2092 35.8143 15.2334 35.2089 16.4222 34.6576C16.8811 34.445 17.0808 33.9006 16.8679 33.4422C16.6551 32.9833 16.1109 32.7836 15.6523 32.9965C14.6847 33.4451 13.8066 33.9329 13.0676 34.4307C11.1456 32.2586 8.13349 31.384 5.29679 32.2495C3.38705 32.8323 1.81892 34.124 0.880507 35.8864C-0.0579102 37.6488 -0.253604 39.6713 0.328901 41.581C1.31109 44.7988 4.28055 46.875 7.48261 46.875C8.2033 46.875 8.93601 46.7698 9.66014 46.5489C12.4966 45.6834 14.5073 43.2762 14.8892 40.4008H14.8978C16.7975 40.4008 19.153 40.0074 21.524 39.2845C23.8986 38.5595 26.075 37.5687 27.6517 36.5064C29.574 38.6785 32.5858 39.5534 35.4222 38.6874C39.3645 37.4843 41.5932 33.2983 40.3901 29.3561C39.1874 25.4136 35.0005 23.1855 31.0589 24.3885Z" fill="white"/>
<path fill-rule="evenodd" clip-rule="evenodd" d="M30.2512 32.4276C30.7539 32.4276 31.163 32.0228 31.1667 31.5198C31.1739 30.6109 31.7644 29.8221 32.6359 29.556C33.7285 29.2227 34.8889 29.8404 35.2228 30.9333C35.3704 31.4171 35.8817 31.6892 36.3658 31.5418C36.8493 31.3942 37.1217 30.8824 36.974 30.3986C36.346 28.3403 34.1599 27.1762 32.1014 27.8048C30.4609 28.3054 29.3494 29.7923 29.336 31.5049C29.3317 32.0108 29.7382 32.4239 30.2438 32.4276H30.2512Z" fill="white"/>
<path fill-rule="evenodd" clip-rule="evenodd" d="M6.87405 37.4172C7.74552 37.1511 8.67564 37.4764 9.1889 38.2263C9.47472 38.6431 10.0444 38.7501 10.4618 38.4643C10.8789 38.1788 10.9856 37.6089 10.7001 37.1917C9.7325 35.7784 7.98012 35.1653 6.33961 35.6659C5.34197 35.9704 4.52257 36.6447 4.03305 37.5645C3.54296 38.4849 3.4411 39.5409 3.74552 40.5386C3.86597 40.9331 4.22846 41.1874 4.62099 41.1869C4.70911 41.1869 4.79923 41.174 4.8885 41.1468C5.37201 40.9992 5.64438 40.4879 5.49675 40.0041C5.3351 39.474 5.38946 38.9135 5.64896 38.4251C5.90902 37.937 6.3439 37.5788 6.87405 37.4172Z" fill="white"/>
<path fill-rule="evenodd" clip-rule="evenodd" d="M42.5744 3.28363C40.2644 -0.129856 35.6081 -1.02822 32.1943 1.28177C29.7381 2.94374 28.5253 5.83567 29.006 8.69641C28.1546 8.95819 27.2233 9.33441 26.266 9.80505C25.8119 10.0282 25.6251 10.577 25.8483 11.0307C26.0714 11.4845 26.6199 11.6716 27.0737 11.4484C28.2501 10.8702 29.3645 10.4539 30.2975 10.2451C30.5452 10.1896 30.7587 10.0336 30.8871 9.8145C31.0156 9.59505 31.0471 9.33241 30.9744 9.08922C30.264 6.716 31.1666 4.18772 33.2206 2.7984C35.7978 1.05432 39.3134 1.73239 41.0578 4.30988C42.8019 6.88709 42.1238 10.403 39.5463 12.1471C37.493 13.5367 34.8102 13.4343 32.8715 11.893C32.6727 11.7348 32.4169 11.6664 32.166 11.7042C31.9145 11.7417 31.6902 11.8822 31.5466 12.0919C30.5212 13.5862 28.6595 15.3051 26.4391 16.8074C24.2183 18.3103 21.9307 19.3992 20.162 19.7952C19.9139 19.8504 19.7005 20.0063 19.572 20.2258C19.4439 20.4449 19.4124 20.7078 19.4848 20.951C20.1952 23.3243 19.2925 25.8523 17.2389 27.2416C15.9906 28.0867 14.4874 28.3946 13.0071 28.1093C11.5268 27.8238 10.2462 26.9792 9.40165 25.7304C7.65729 23.1529 8.33535 19.637 10.9129 17.8932C12.9665 16.5036 15.649 16.6057 17.5879 18.1472C17.7868 18.3054 18.0425 18.3738 18.2937 18.3361C18.5446 18.2983 18.7689 18.1581 18.9126 17.9487C19.453 17.1607 20.2538 16.2807 21.2286 15.4038C21.6045 15.0653 21.6348 14.4865 21.2967 14.1106C20.9582 13.7347 20.3794 13.7041 20.0035 14.0425C19.2101 14.7563 18.5146 15.4813 17.9553 16.1746C15.4788 14.6642 12.3431 14.7146 9.88689 16.3765C6.47282 18.6865 5.57503 23.3431 7.88474 26.7566C9.00397 28.4103 10.6997 29.5292 12.6604 29.9075C13.1373 29.9993 13.6162 30.0448 14.0915 30.0448C15.5695 30.0448 17.0137 29.6051 18.2651 28.7588C20.7213 27.0965 21.9338 24.2046 21.4529 21.3439C23.2705 20.7857 25.4094 19.7156 27.4653 18.3246C29.5213 16.933 31.3103 15.3457 32.5042 13.8663C34.981 15.3766 38.1161 15.3263 40.5723 13.664C43.9863 11.354 44.8844 6.69741 42.5744 3.28363Z" fill="white"/>
<path fill-rule="evenodd" clip-rule="evenodd" d="M35.2223 5.75649C35.6809 5.44607 36.2328 5.33306 36.7759 5.43748C37.3192 5.5422 37.7892 5.85262 38.0999 6.31153C38.3832 6.73067 38.9525 6.83996 39.3714 6.55672C39.79 6.27319 39.8998 5.70413 39.6166 5.28556C39.0318 4.42153 38.1463 3.83674 37.1229 3.63961C36.0992 3.4422 35.0601 3.65535 34.1961 4.24014C32.7756 5.20145 32.1507 6.94954 32.6417 8.59062C32.761 8.98773 33.1246 9.24379 33.5186 9.24379C33.6056 9.24379 33.694 9.23149 33.7815 9.20517C34.2662 9.06012 34.5411 8.54999 34.3963 8.06562C34.1357 7.1953 34.4679 6.26718 35.2223 5.75649Z" fill="white"/>
<path fill-rule="evenodd" clip-rule="evenodd" d="M12.9146 20.8513C13.6694 20.3406 14.6538 20.3778 15.3651 20.9431C15.7608 21.2579 16.337 21.1921 16.6517 20.7961C16.9664 20.4004 16.9006 19.8242 16.5049 19.5098C15.1643 18.4437 13.3092 18.3734 11.8884 19.3347C10.106 20.5409 9.63705 22.9725 10.843 24.7552C11.0201 25.0167 11.3087 25.1574 11.6023 25.1574C11.7788 25.1574 11.9573 25.1068 12.1147 25.0001C12.5335 24.7168 12.6434 24.1475 12.3596 23.7286C11.7196 22.7825 11.9685 21.4913 12.9146 20.8513Z" fill="white"/>
<path fill-rule="evenodd" clip-rule="evenodd" d="M20.3785 32.5289C20.3785 32.0242 19.9671 31.613 19.4629 31.613C18.9582 31.613 18.5471 32.0242 18.5471 32.5289C18.5471 33.0333 18.9582 33.4444 19.4629 33.4444C19.9671 33.4444 20.3785 33.0333 20.3785 32.5289Z" fill="white"/>
<path fill-rule="evenodd" clip-rule="evenodd" d="M23.5071 13.3899C24.0115 13.3899 24.4227 12.9788 24.4227 12.4744C24.4227 11.9703 24.0115 11.5586 23.5071 11.5586C23.0024 11.5586 22.5913 11.9703 22.5913 12.4744C22.5913 12.9788 23.0024 13.3899 23.5071 13.3899Z" fill="white"/>
</svg>
