<svg width="75" height="55" viewBox="0 0 75 55" fill="none" xmlns="http://www.w3.org/2000/svg">
<path d="M57.4951 16.9861H17.5049V25.0809H57.4951V16.9861ZM55.2979 22.8963H19.7021V19.1706H55.2979V22.8963Z" fill="black"/>
<path d="M75 2.38989H69.2356C65.7967 2.38989 62.9992 5.17121 62.9992 8.59026V28.4105H50.5079C46.9305 28.4105 44.0197 31.3045 44.0197 34.8612V40.8761H48.0223L45.2682 48.5834H40.785L40.5762 48.3752V26.9012H38.3789V49.2803L39.8752 50.768H44.4872L43.7553 52.8154H31.2441L30.5122 50.768H35.1248L36.6211 49.2803V26.9012H34.4238V48.3758L34.215 48.5834H29.7318L26.9777 40.8761H30.9803V34.8612C30.9803 31.3045 28.0695 28.4105 24.4921 28.4105H12.0008V8.59026C12.0008 5.17121 9.20334 2.38989 5.76439 2.38989H0V40.8761H5.2002L0.152779 55H6.86531L11.9122 40.8761H20.2652L25.3126 55H49.6874L54.7348 40.8761H63.0878L68.1347 55H74.8472L69.8004 40.8761H75V2.38989ZM5.31406 52.8154H3.265L7.53193 40.8761H9.58042L5.31406 52.8154ZM2.19727 38.6915V36.7983H14.4041V34.6137H2.19727V4.57444H5.76439C7.99198 4.57444 9.80358 6.37556 9.80358 8.59026V30.595H24.4921C26.8581 30.595 28.783 32.5088 28.783 34.8612V38.6915H2.19727ZM26.8639 52.8154L22.5975 40.8761H24.646L28.9129 52.8154H26.8639ZM48.1361 52.8154H46.0876L50.354 40.8761H52.4031L48.1361 52.8154ZM71.735 52.8154H69.6859L65.4196 40.8761H67.4681L71.735 52.8154ZM72.8027 38.6915H46.217V36.7983H58.4244V34.6137H46.2244C46.3537 32.3757 48.2254 30.595 50.5079 30.595H65.1964V8.59026C65.1964 6.37556 67.0086 4.57444 69.2356 4.57444H72.8027V38.6915Z" fill="black"/>
<path d="M35.5225 13.9987V16.1833H39.4775V13.9987H38.5986V8.53735H36.4014V9.44758H35.5225V11.6321H36.4014V13.9987H35.5225Z" fill="black"/>
<path d="M33.7354 6.39493H41.2645L42.7597 15.3442L44.9272 14.9864L43.1265 4.21038H40.5504C40.6574 3.8918 40.7158 3.5516 40.7158 3.19775C40.7158 1.43475 39.2727 0 37.4994 0C35.7261 0 34.283 1.43418 34.283 3.19775C34.283 3.5516 34.3414 3.8918 34.449 4.21038H31.8729L30.0728 14.9864L32.2403 15.3442L33.7354 6.39493ZM36.4809 3.19775C36.4809 2.6391 36.9375 2.18455 37.4994 2.18455C38.0613 2.18455 38.5185 2.6391 38.5185 3.19775C38.5185 3.75583 38.0613 4.21038 37.4994 4.21038C36.9375 4.21038 36.4809 3.75583 36.4809 3.19775Z" fill="black"/>
<path d="M8.33862 24.8487H6.14136V15.8722H8.33862V24.8487ZM8.33862 14.4158H6.14136V12.2312H8.33862V14.4158ZM8.33862 10.7749H6.14136V8.59033H8.33862V10.7749Z" fill="black"/>
<path d="M71.3379 26.6935H69.1406V14.4043H71.3379V26.6935ZM71.3379 12.9485H69.1406V10.764H71.3379V12.9485ZM71.3379 9.3076H69.1406V7.12305H71.3379V9.3076Z" fill="black"/>
<path d="M53.0897 22.1255H48.2598V19.9409H53.0897V22.1255ZM46.7949 22.1255H44.5977V19.9409H46.7949V22.1255ZM43.1328 22.1255H40.9355V19.9409H43.1328V22.1255Z" fill="black"/>
</svg>
