<svg width="50" height="50" viewBox="0 0 50 50" fill="none" xmlns="http://www.w3.org/2000/svg">
<path d="M49.0234 20.166H41.0156V18.0989C41.0156 17.5595 40.5783 17.1223 40.0391 17.1223H18.9453C18.4061 17.1223 17.9688 17.5595 17.9688 18.0989C17.9688 18.6382 18.4061 19.0754 18.9453 19.0754H39.0625V26.5624C39.0625 33.1393 35.5511 39.252 29.8811 42.578H11.1346C5.46455 39.2521 1.95312 33.1393 1.95312 26.5625V19.0755H8.49609C9.03535 19.0755 9.47266 18.6383 9.47266 18.099C9.47266 17.5596 9.03535 17.1224 8.49609 17.1224H0.976562C0.437305 17.1224 0 17.5596 0 18.099V26.5625C0 30.2539 0.992188 33.8734 2.86934 37.0295C4.13525 39.1582 5.77783 41.0378 7.70137 42.5781H0.976562C0.437305 42.5781 0 43.0153 0 43.5546C0 47.1086 2.89131 50 6.44531 50H36.9141C40.4681 50 43.3594 47.1086 43.3594 43.5546C43.3594 43.0153 42.9221 42.5781 42.3828 42.5781H33.3143C35.0847 41.1605 36.6162 39.4547 37.8359 37.5325H40.5925C45.7798 37.5325 50 33.3123 50 28.125V21.1425C50 20.6032 49.5628 20.166 49.0234 20.166ZM41.2993 44.5312C40.8522 46.5402 39.0558 48.0468 36.9141 48.0468H6.44531C4.30361 48.0468 2.50723 46.5402 2.06006 44.5312H10.8729H30.1427H41.2993ZM41.0156 26.5625V26.0253H44.1406V28.125C44.1406 30.0814 42.5489 31.6731 40.5925 31.6731H40.3707C40.797 30.0124 41.0156 28.2954 41.0156 26.5625ZM48.0469 28.125C48.0469 32.2353 44.7028 35.5793 40.5925 35.5793H38.9304C39.2422 34.9425 39.5207 34.2906 39.7641 33.6262H40.5925C43.626 33.6262 46.0938 31.1583 46.0938 28.125V25.0488C46.0938 24.5094 45.6564 24.0722 45.1172 24.0722H41.0156V22.1191H48.0469V28.125Z" fill="white"/>
<path d="M21.4403 5.40462L20.9322 4.76663C20.1863 3.83031 20.1852 2.52142 20.9296 1.58372C21.2649 1.16126 21.1942 0.547006 20.7718 0.211752C20.3492 -0.123698 19.735 -0.0528968 19.3997 0.369564C18.087 2.02347 18.089 4.33197 19.4045 5.98353L19.9126 6.62152C20.8873 7.84515 20.8888 9.5556 19.9161 10.7811L19.3954 11.4371C19.06 11.8596 19.1308 12.4739 19.5532 12.8091C19.7328 12.9516 19.947 13.0208 20.1597 13.0208C20.4474 13.0208 20.7324 12.8943 20.9253 12.6513L21.446 11.9952C22.987 10.0536 22.9848 7.34349 21.4403 5.40462Z" fill="white"/>
<path d="M26.8534 7.60042L26.3453 6.96253C25.5994 6.02611 25.5983 4.71722 26.3427 3.77953C26.678 3.35706 26.6073 2.74281 26.1848 2.40755C25.7623 2.0721 25.1481 2.1429 24.8128 2.56536C23.5001 4.21927 23.502 6.52777 24.8176 8.17943L25.3257 8.81742C26.3003 10.0411 26.3017 11.7517 25.3291 12.9771L24.8085 13.633C24.4731 14.0555 24.5438 14.6698 24.9663 15.005C25.1459 15.1475 25.36 15.2166 25.5727 15.2166C25.8604 15.2166 26.1456 15.09 26.3384 14.8471L26.8589 14.1911C28.4 12.2496 28.3977 9.53949 26.8534 7.60042Z" fill="white"/>
<path d="M16.0272 7.60042L15.5191 6.96253C14.7732 6.0262 14.7722 4.71722 15.5164 3.77952C15.8518 3.35706 15.7811 2.7428 15.3586 2.40745C14.936 2.0721 14.3219 2.143 13.9865 2.56526C12.6739 4.21917 12.6759 6.52776 13.9914 8.17933L14.4995 8.81731C15.4741 10.041 15.4756 11.7516 14.503 12.9769L13.9823 13.6328C13.647 14.0553 13.7176 14.6696 14.14 15.0049C14.3196 15.1474 14.5337 15.2166 14.7465 15.2166C15.0342 15.2166 15.3192 15.0901 15.512 14.8472L16.0328 14.1911C17.5738 12.2496 17.5716 9.53948 16.0272 7.60042Z" fill="white"/>
<path d="M14.6758 17.4082C14.4941 17.2266 14.2422 17.1221 13.9854 17.1221C13.7285 17.1221 13.4766 17.2266 13.2949 17.4082C13.1134 17.5908 13.0088 17.8418 13.0088 18.0986C13.0088 18.3555 13.1133 18.6074 13.2949 18.79C13.4766 18.9717 13.7285 19.0752 13.9854 19.0752C14.2422 19.0752 14.4941 18.9717 14.6758 18.79C14.8583 18.6074 14.9619 18.3564 14.9619 18.0986C14.9619 17.8418 14.8583 17.5898 14.6758 17.4082Z" fill="white"/>
<path d="M35.3516 25.5859C34.8123 25.5859 34.375 26.0231 34.375 26.5625C34.375 30.1874 32.9047 33.7498 30.341 36.3362C29.9614 36.7192 29.9642 37.3376 30.3472 37.7173C30.5376 37.9061 30.7862 38.0003 31.0347 38.0003C31.2861 38.0002 31.5374 37.9037 31.7284 37.711C34.6516 34.7618 36.3282 30.6983 36.3282 26.5625C36.3282 26.0231 35.8909 25.5859 35.3516 25.5859Z" fill="white"/>
<path d="M28.6997 38.9867C28.4346 38.5169 27.839 38.351 27.3693 38.6159L27.3471 38.6285C26.8772 38.8935 26.7113 39.4891 26.9763 39.9589C27.1557 40.277 27.4867 40.4558 27.8277 40.4558C27.9902 40.4558 28.1551 40.4151 28.3066 40.3297L28.3289 40.3171C28.7987 40.052 28.9646 39.4564 28.6997 38.9867Z" fill="white"/>
</svg>
