<svg width="28" height="28" viewBox="0 0 28 28" fill="none" xmlns="http://www.w3.org/2000/svg">
<path d="M22.6705 19.4209C22.5595 19.4209 22.4484 19.3803 22.3618 19.2982L17.1666 14.4244C16.9851 14.2547 16.9761 13.9685 17.1467 13.787C17.3174 13.6037 17.6018 13.5956 17.7851 13.7671L22.9802 18.6409C23.1617 18.8106 23.1707 19.0968 23.0001 19.2783C22.9107 19.3731 22.7915 19.4209 22.6705 19.4209Z" fill="black"/>
<path d="M5.32884 19.4211C5.20876 19.4211 5.08867 19.3733 4.99929 19.2785C4.82865 19.097 4.83767 18.8108 5.01915 18.6411L10.2161 13.7673C10.3985 13.5976 10.6847 13.6048 10.8544 13.7872C11.0251 13.9687 11.0161 14.2549 10.8346 14.4246L5.63762 19.2983C5.55095 19.3805 5.43989 19.4211 5.32884 19.4211Z" fill="black"/>
<path d="M25.7428 23.9526H2.25719C1.01303 23.9526 0 22.9405 0 21.6954V6.30407C0 5.059 1.01303 4.04688 2.25719 4.04688H25.7428C26.987 4.04688 28 5.059 28 6.30407V21.6954C28 22.9405 26.987 23.9526 25.7428 23.9526ZM2.25719 4.94975C1.51051 4.94975 0.902876 5.55739 0.902876 6.30407V21.6954C0.902876 22.4421 1.51051 23.0497 2.25719 23.0497H25.7428C26.4895 23.0497 27.0971 22.4421 27.0971 21.6954V6.30407C27.0971 5.55739 26.4895 4.94975 25.7428 4.94975H2.25719Z" fill="black"/>
<path d="M14.0003 16.2683C13.3998 16.2683 12.7994 16.0688 12.3426 15.6706L0.74965 5.55747C0.561851 5.39405 0.541988 5.10874 0.705409 4.92004C0.870635 4.73224 1.15504 4.71508 1.34284 4.8767L12.9358 14.9889C13.5127 15.4918 14.4878 15.4918 15.0639 14.9889L26.6423 4.89295C26.8292 4.72953 27.1136 4.74759 27.2798 4.93629C27.4432 5.12499 27.4242 5.4094 27.2364 5.57372L15.6579 15.6697C15.2002 16.0688 14.6007 16.2683 14.0003 16.2683Z" fill="black"/>
</svg>
