<svg width="20" height="29" viewBox="0 0 20 29" fill="none" xmlns="http://www.w3.org/2000/svg">
<path fill-rule="evenodd" clip-rule="evenodd" d="M17.5293 14.9738C18.46 12.9542 19 11.2463 19 10.087C19 5.06019 14.9624 1 10 1C5.03758 1 1 5.06019 1 10.087C1 11.2463 1.53995 12.9542 2.47069 14.9738C3.38405 16.9556 4.61054 19.1068 5.84988 21.1056C7.08712 23.101 8.32601 24.9266 9.25645 26.2544C9.53502 26.6519 9.78566 27.0044 10 27.3031C10.2143 27.0044 10.465 26.6519 10.7436 26.2544C11.674 24.9266 12.9129 23.101 14.1501 21.1056C15.3895 19.1068 16.6159 16.9556 17.5293 14.9738ZM10.6187 28.1552C12.7997 25.1367 20 14.8141 20 10.087C20 4.51608 15.5228 0 10 0C4.47715 0 0 4.51608 0 10.087C0 14.8141 7.20026 25.1367 9.38131 28.1552C9.77061 28.6939 10 29 10 29C10 29 10.2294 28.6939 10.6187 28.1552Z" fill="black"/>
<path fill-rule="evenodd" clip-rule="evenodd" d="M10 13C11.6569 13 13 11.6569 13 10C13 8.34315 11.6569 7 10 7C8.34315 7 7 8.34315 7 10C7 11.6569 8.34315 13 10 13ZM10 14C12.2091 14 14 12.2091 14 10C14 7.79086 12.2091 6 10 6C7.79086 6 6 7.79086 6 10C6 12.2091 7.79086 14 10 14Z" fill="black"/>
</svg>
