<svg width="46" height="46" viewBox="0 0 46 46" fill="none" xmlns="http://www.w3.org/2000/svg">
<path d="M22.2586 4.49838V5.93552H23.7424V4.49548C26.8319 4.83891 29.2907 7.29766 29.6341 10.3871H28.1941V11.871H29.6312C29.4881 13.1426 28.9849 14.358 28.1701 15.3535L29.3189 16.2936C30.5075 14.8409 31.1618 13.0067 31.1618 11.1291C31.1618 6.62927 27.5003 2.96777 23.0005 2.96777C21.1228 2.96777 19.2887 3.62204 17.8359 4.81066L18.776 5.95943C19.7716 5.14467 20.987 4.64148 22.2586 4.49838Z" fill="#0C95ED"/>
<path d="M28.1637 17.4478L27.2236 16.299C26.2281 17.1138 25.012 17.617 23.7411 17.7601V16.323H22.2572V17.763C19.1678 17.4196 16.709 14.9608 16.3656 11.8713H17.8056V10.3875H16.3685C16.5116 9.1159 17.0148 7.90047 17.8295 6.90494L16.6808 5.96484C15.4922 7.41756 14.8379 9.25175 14.8379 11.1294C14.8379 15.6292 18.4994 19.2907 22.9992 19.2907C24.8768 19.2907 26.711 18.6364 28.1637 17.4478Z" fill="#0C95ED"/>
<path d="M11.1289 32.6455H16.3225V34.1294H11.1289V32.6455Z" fill="#0C95ED"/>
<path d="M11.1289 35.6133H16.3225V37.0972H11.1289V35.6133Z" fill="#0C95ED"/>
<path d="M6.67773 23.7422H11.8713V25.2261H6.67773V23.7422Z" fill="#0C95ED"/>
<path d="M6.67773 26.71H11.8713V28.1938H6.67773V26.71Z" fill="#0C95ED"/>
<path d="M29.6777 32.6455H34.8713V34.1294H29.6777V32.6455Z" fill="#0C95ED"/>
<path d="M29.6777 35.6133H34.8713V37.0972H29.6777V35.6133Z" fill="#0C95ED"/>
<path d="M34.1289 23.7422H39.3225V25.2261H34.1289V23.7422Z" fill="#0C95ED"/>
<path d="M34.1289 26.71H39.3225V28.1938H34.1289V26.71Z" fill="#0C95ED"/>
<path d="M42.2903 23.7419V20.7742H31.1613V23.7419H27.7483L31.9597 18.0267C33.3788 16.1001 34.129 13.8178 34.129 11.425V11.129C34.129 4.99249 29.1365 0 23 0C16.8635 0 11.871 4.99249 11.871 11.129V11.425C11.871 13.8178 12.6212 16.1001 14.0403 18.0267L18.2517 23.7419H14.8387V20.7742H3.70968V23.7419H0V46H46V23.7419H42.2903ZM40.8065 22.2581V38.5806H37.8387V37.0968H39.3226V35.6129H37.8387V34.129H39.3226V32.6452H37.8387V31.1613H39.3226V29.6774H32.6452V22.2581H40.8065ZM36.3548 31.1613V38.5806H28.1935V31.1613H36.3548ZM13.3548 11.425V11.129C13.3548 5.81086 17.6818 1.48387 23 1.48387C28.3182 1.48387 32.6452 5.81086 32.6452 11.129V11.425C32.6452 13.4979 31.9952 15.4767 30.765 17.1468L23 27.6846L15.235 17.1468C14.0048 15.4767 13.3548 13.4979 13.3548 11.425ZM17.8065 38.5806H9.64516V31.1613H17.8065V38.5806ZM5.19355 22.2581H13.3548V29.6774H6.67742V31.1613H8.16129V32.6452H6.67742V34.129H8.16129V35.6129H6.67742V37.0968H8.16129V38.5806H5.19355V22.2581ZM44.5161 44.5161H1.48387V25.2258H3.70968V40.0645H20.7742V38.5806H19.2903V29.6774H14.8387V25.2258H19.3454L23 30.1864L26.6546 25.2258H31.1613V29.6774H26.7097V38.5806H25.2258V40.0645H42.2903V25.2258H44.5161V44.5161Z" fill="#0C95ED"/>
</svg>
