<svg xmlns="http://www.w3.org/2000/svg" viewBox="0 0 494.65 494.64"><defs><style>.cls-1{fill:#0c94ec;}.cls-2{fill:#0c95ec;}</style></defs><title>Ресурс 8</title><g id="Слой_2" data-name="Слой 2"><g id="Слой_1-2" data-name="Слой 1"><path class="cls-1" d="M248,.1Q368,.1,488,0c4.94,0,6.65.86,6.64,6.34q-.25,241.24,0,482.48c0,4.31-.74,5.83-5.54,5.82q-96-.28-192,0c-4.13,0-6-.59-5.59-5.31a126,126,0,0,0,0-17.49c-.19-3.62,1.09-4.36,4.49-4.35,34.5.12,69,.07,103.5.07,21.17,0,42.33-.11,63.5.1,3.84,0,4.6-1.08,4.6-4.73q-.14-215.74,0-431.48c0-3.76-1-4.71-4.71-4.71q-215.49.15-431,0c-4.5,0-5.07,1.67-5.06,5.51.11,54.83,0,109.67.2,164.5,0,5.19-1.42,6.6-6.37,6.19a110.82,110.82,0,0,0-16,0C.83,203.11,0,201.68,0,198.05c.13-31.17.07-62.33.07-93.5,0-33,.09-66-.1-99C0,1.16,1.1,0,5.53,0Q126.78.21,248,.1Z"/><path class="cls-2" d="M117.51,484.93c-32.83,0-65.65-.06-98.47.09-4.09,0-5.66-.6-5.65-5.31q.29-99.72,0-199.44c0-3.95,1-4.91,4.93-4.91q99.72.19,199.44,0c4.17,0,5.24,1.07,5.23,5.23q-.21,99.48,0,198.94c0,4.45-1.19,5.54-5.57,5.52C184.15,484.85,150.83,484.93,117.51,484.93ZM118,302.45c-24.31,0-48.63,0-72.94-.06-3.11,0-4.71.24-4.7,4.14q.23,73.7,0,147.4c0,3.58,1.12,4.4,4.53,4.39q73.19-.15,146.39,0c4,0,5.06-1.05,5-5q-.2-72.94,0-145.9c0-4.42-1.51-5.07-5.42-5.05C166.63,302.53,142.31,302.45,118,302.45Z"/><path class="cls-2" d="M391.1,123.75c-5.47,5.38-10.28,9.89-14.86,14.62q-45.58,47-91,94.08c-3.25,3.39-5.11,3.9-8.34.1a122.55,122.55,0,0,0-12.14-11.86c-2.39-2.12-2.63-3.43-.23-5.87q38.58-39.49,76.94-79.21c10.05-10.36,20.08-20.74,30.2-31.19-1.65-1.47-3.2-.87-4.58-.87-17,0-34-.12-51,0-3.41,0-4.67-.77-4.5-4.38.29-6.31.19-12.66,0-19-.07-2.72.61-3.77,3.57-3.76q49.49.15,99,0c2.8,0,3.69.79,3.68,3.64q-.13,49.47,0,99c0,2.86-.91,3.73-3.71,3.65-6.33-.17-12.67-.24-19,0-3.44.15-4.12-1.21-4.1-4.33.13-16.16.06-32.32.06-48.48Z"/></g></g></svg>