<svg width="16" height="18" viewBox="0 0 16 18" fill="none" xmlns="http://www.w3.org/2000/svg">
<path d="M7.93477 9.6989C7.9534 9.6989 7.97204 9.6989 7.99441 9.6989C8.00186 9.6989 8.00932 9.6989 8.01677 9.6989C8.02795 9.6989 8.04286 9.6989 8.05405 9.6989C9.1462 9.68027 10.0296 9.29634 10.6819 8.56202C12.117 6.94429 11.8784 4.17105 11.8524 3.9064C11.7592 1.91965 10.8198 0.969145 10.0445 0.525575C9.46676 0.193829 8.79209 0.0149099 8.03914 0H8.01304C8.00932 0 8.00186 0 7.99813 0H7.97577C7.56202 0 6.74943 0.0670946 5.97038 0.510665C5.18761 0.954235 4.23337 1.90474 4.14018 3.9064C4.11409 4.17105 3.87553 6.94429 5.31062 8.56202C5.9592 9.29634 6.84261 9.68027 7.93477 9.6989ZM5.13542 3.99959C5.13542 3.9884 5.13915 3.97722 5.13915 3.96977C5.26216 1.29716 7.15945 1.01015 7.97204 1.01015H7.98695C7.99441 1.01015 8.00559 1.01015 8.01677 1.01015C9.02319 1.03251 10.7341 1.44253 10.8497 3.96977C10.8497 3.98095 10.8497 3.99213 10.8534 3.99959C10.8571 4.02568 11.118 6.56037 9.9327 7.8948C9.46304 8.4241 8.83682 8.68503 8.01304 8.69248C8.00559 8.69248 8.00186 8.69248 7.99441 8.69248C7.98695 8.69248 7.98322 8.69248 7.97577 8.69248C7.15572 8.68503 6.52578 8.4241 6.05984 7.8948C4.87823 6.56782 5.1317 4.02195 5.13542 3.99959Z" fill="#0C95ED"/>
<path d="M15.6544 14.2987C15.6544 14.295 15.6544 14.2912 15.6544 14.2875C15.6544 14.2577 15.6507 14.2279 15.6507 14.1943C15.6283 13.4563 15.5798 11.7304 13.9621 11.1788C13.9509 11.175 13.936 11.1713 13.9248 11.1676C12.2437 10.7389 10.8459 9.76978 10.831 9.7586C10.6036 9.59832 10.2905 9.65423 10.1303 9.88161C9.96997 10.109 10.0259 10.4221 10.2533 10.5824C10.3166 10.6271 11.8002 11.6596 13.6565 12.1367C14.525 12.4461 14.6219 13.3743 14.648 14.2241C14.648 14.2577 14.648 14.2875 14.6517 14.3173C14.6554 14.6528 14.633 15.1709 14.5734 15.4691C13.9696 15.812 11.6026 16.9974 8.00186 16.9974C4.41603 16.9974 2.03417 15.8083 1.42659 15.4654C1.36695 15.1672 1.34086 14.6491 1.34831 14.3136C1.34831 14.2838 1.35204 14.2539 1.35204 14.2204C1.37813 13.3705 1.47505 12.4424 2.34355 12.133C4.19983 11.6559 5.68337 10.6196 5.74674 10.5786C5.97411 10.4184 6.03003 10.1053 5.86974 9.87788C5.70946 9.6505 5.39635 9.59459 5.16898 9.75487C5.15407 9.76606 3.76372 10.7352 2.07517 11.1639C2.06026 11.1676 2.04908 11.1713 2.03789 11.175C0.420169 11.7304 0.371711 13.4563 0.349347 14.1906C0.349347 14.2241 0.349346 14.2539 0.345619 14.2838C0.345619 14.2875 0.345619 14.2912 0.345619 14.295C0.341891 14.4888 0.338164 15.484 0.535721 15.9835C0.572995 16.0804 0.64009 16.1624 0.72955 16.2183C0.841374 16.2929 3.52143 18.0001 8.00559 18.0001C12.4897 18.0001 15.1698 16.2892 15.2816 16.2183C15.3674 16.1624 15.4382 16.0804 15.4755 15.9835C15.6618 15.4877 15.6581 14.4925 15.6544 14.2987Z" fill="#0C95ED"/>
</svg>
