<?xml version="1.0" encoding="UTF-8"?>
<svg width="262px" height="47px" viewBox="0 0 262 47" version="1.1" xmlns="http://www.w3.org/2000/svg" xmlns:xlink="http://www.w3.org/1999/xlink">
    <!-- Generator: Sketch 50.2 (55047) - http://www.bohemiancoding.com/sketch -->
    <title>logo</title>
    <desc>Created with Sketch.</desc>
    <defs></defs>
    <g id="Page-1" stroke="none" stroke-width="1" fill="none" fill-rule="evenodd">
        <g id="logo">
            <path d="M39.2044,18.8278 C37.5681,16.6035 35.7509,14.5066 33.7999,12.5545 C28.9958,7.74748 22.7609,3.24056 16.2432,1.1304 C11.9134,-0.271552 6.13708,-0.93204 2.60279,2.60438 C2.33719,2.8701 2.09067,3.15446 1.86492,3.45485 C0.0607648,5.85589 -0.223784,9.00198 0.135098,11.8956 C0.591347,15.5741 2.1028,19.285 3.89922,22.5192 C4.66152,21.2292 5.49328,19.9711 6.37617,18.7544 C5.79672,17.5506 5.28813,16.3106 4.87721,15.0398 C3.99073,12.2986 3.10121,7.67947 5.38806,5.39122 C7.67479,3.10303 12.2911,3.99329 15.0305,4.8802 C20.9442,6.79489 26.6514,10.9755 31.0147,15.3415 C33.232,17.5602 35.2831,19.9996 37.0494,22.5963 C37.8421,21.3727 38.5684,20.1123 39.2044,18.8278 Z M39.9704,27.6206 C40.5498,28.8245 41.0585,30.0646 41.4695,31.3353 C42.356,34.0765 43.2456,38.6957 40.9587,40.9838 C38.6719,43.2721 34.0556,42.3818 31.3162,41.4949 C25.4026,39.5802 19.6952,35.3997 15.332,31.0337 C13.1146,28.8149 11.0635,26.3754 9.29712,23.7786 C8.50435,25.0021 7.77807,26.2625 7.14201,27.547 C8.77849,29.7715 10.5957,31.8685 12.5467,33.8207 C17.3508,38.6277 23.5858,43.1346 30.1034,45.2448 C34.4334,46.6467 40.2097,47.3072 43.7439,43.7708 C44.0097,43.5048 44.2563,43.2204 44.4822,42.9198 C46.286,40.5187 46.5704,37.3728 46.2114,34.4792 C45.7551,30.8008 44.2438,27.09 42.4473,23.8558 C41.685,25.1458 40.8533,26.4039 39.9704,27.6206 Z" id="Shape" fill="#0C95ED"></path>
            <path d="M18.8163,7.14658 C16.5932,8.78391 14.4976,10.6023 12.5466,12.5545 C7.74252,17.3615 3.2384,23.6003 1.12947,30.1219 C-0.271635,34.4545 -0.931698,40.2344 2.60253,43.7708 C2.86825,44.0366 3.15237,44.2834 3.45275,44.5094 C5.85233,46.3144 8.99648,46.599 11.8882,46.2398 C15.5644,45.7832 19.2729,44.271 22.5052,42.4735 C21.2161,41.7107 19.9586,40.8785 18.7427,39.995 C17.5396,40.5748 16.3004,41.0837 15.0303,41.495 C12.2909,42.382 7.67452,43.272 5.38767,40.9838 C3.10094,38.6957 3.99065,34.0764 4.87707,31.3355 C6.79054,25.4181 10.9686,19.7074 15.3319,15.3415 C17.5492,13.1227 19.9873,11.0703 22.5824,9.30286 C21.3596,8.50973 20.1,7.783 18.8163,7.14658 Z M27.6036,6.3802 C28.8065,5.80026 30.0458,5.29143 31.3159,4.88015 C34.0554,3.99324 38.6717,3.10298 40.9585,5.39123 C43.2453,7.67948 42.3556,12.2986 41.4692,15.0397 C39.5557,20.957 35.3777,26.6679 31.0144,31.0338 C28.797,33.2525 26.359,35.3048 23.7639,37.0722 C24.9866,37.8654 26.2462,38.5922 27.5299,39.2286 C29.753,37.5913 31.8487,35.7729 33.7997,33.8207 C38.6037,29.0137 43.1079,22.7749 45.2168,16.2532 C46.6179,11.9207 47.2779,6.14081 43.7436,2.60439 C43.478,2.33849 43.1938,2.09177 42.8934,1.8659 C40.4939,0.0607669 37.3498,-0.223957 34.458,0.13523 C30.7818,0.591784 27.0733,2.10415 23.8411,3.90172 C25.1302,4.66458 26.3876,5.49664 27.6036,6.3802 Z" id="Shape" fill="#EF202F"></path>
            <path d="M75.3536,31.5162 C81.0913,31.2694 85.1324,28.2772 85.1324,23.0948 C85.1324,17.8815 81.0913,14.8893 75.3536,14.6425 L75.3536,12.3906 L71.1892,12.3906 L71.1892,14.6425 C68.2586,14.7659 65.9142,15.5679 64.1251,17.0178 C62.3668,18.4676 61.4722,20.4419 61.4722,23.0023 C61.4722,28.1538 65.4515,31.2694 71.1892,31.5162 L71.1892,33.984 L75.3536,33.984 L75.3536,31.5162 Z M81.0296,23.0331 C81.0296,26.087 78.9011,27.8453 75.3536,27.9379 L75.3536,18.19 C78.9319,18.3134 81.0296,19.9792 81.0296,23.0331 Z M71.1892,27.9379 C67.6417,27.7836 65.5749,26.1178 65.5749,23.1256 C65.5749,20.1334 67.7034,18.3442 71.1892,18.19 L71.1892,27.9379 Z M104.659,12.6374 L92.7517,25.5009 L92.7517,13.0076 L88.5873,13.0076 L88.5873,33.7372 L89.9446,33.7372 L101.883,20.7504 L101.883,33.3671 L106.047,33.3671 L106.047,12.6374 L104.659,12.6374 Z M125.327,27.3517 C125.327,25.2232 124.247,23.5575 122.396,22.6629 C123.661,21.645 124.432,20.1951 124.432,18.5602 C124.432,14.8893 121.841,12.6374 117.677,12.6374 C114.314,12.6374 111.723,14.2724 110.335,17.0795 L113.235,19.1463 C114.253,17.388 115.672,16.4934 117.461,16.4934 C119.281,16.4934 120.33,17.4496 120.33,18.8995 C120.33,20.2876 119.342,21.2439 117.615,21.2439 L115.24,21.2439 L115.24,24.668 L117.923,24.668 C120.114,24.668 121.224,25.6551 121.224,27.1358 C121.224,28.8325 119.651,29.8813 117.553,29.8813 C115.487,29.8813 113.79,28.8941 112.463,26.9199 L109.564,29.0175 C111.044,31.948 113.975,33.7372 117.584,33.7372 C122.273,33.7372 125.327,31.1768 125.327,27.3517 Z" id="Shape" fill="#000000" fill-rule="nonzero"></path>
            <path d="M132.977,33.3671 L137.142,33.3671 L137.142,16.7711 L143.681,16.7711 L143.681,13.0077 L126.468,13.0077 L126.468,16.7711 L132.977,16.7711 L132.977,33.3671 Z M146.427,33.3671 L160.493,33.3671 L160.493,29.6037 L150.591,29.6037 L150.591,24.4522 L157.594,24.4522 L157.594,20.9047 L150.591,20.9047 L150.591,16.7711 L160.123,16.7711 L160.123,13.0077 L146.427,13.0077 L146.427,33.3671 Z M180.267,33.3671 L173.573,23.0023 L179.835,13.0077 L175.115,13.0077 L171.228,19.424 L167.311,13.0077 L162.56,13.0077 L168.915,23.0023 L162.159,33.3671 L166.91,33.3671 L171.228,26.6115 L175.547,33.3671 L180.267,33.3671 Z M183.043,33.3671 L187.207,33.3671 L187.207,16.7711 L195.906,16.7711 L195.906,33.3671 L200.071,33.3671 L200.071,13.0077 L183.043,13.0077 L183.043,33.3671 Z M217.87,33.3671 L222.343,33.3671 L213.274,12.6375 L211.886,12.6375 L202.785,33.3671 L207.258,33.3671 L208.4,30.7142 L216.729,30.7142 L217.87,33.3671 Z M215.279,27.2901 L209.85,27.2901 L212.564,20.4111 L215.279,27.2901 Z M225.119,33.3671 L229.284,33.3671 L229.284,26.1796 L232.769,26.1796 C237.026,26.1796 240.111,23.465 240.111,19.5782 C240.111,15.6605 237.026,13.0077 232.769,13.0077 L225.119,13.0077 L225.119,33.3671 Z M229.284,22.5396 L229.284,16.6785 L232.769,16.6785 C234.651,16.6785 235.854,17.8508 235.854,19.5782 C235.854,21.3365 234.713,22.5396 232.769,22.5396 L229.284,22.5396 Z M261.365,33.3671 L252.543,22.6013 L260.347,13.0077 L255.381,13.0077 L247.607,22.4471 L247.607,13.0077 L243.443,13.0077 L243.443,33.3671 L247.607,33.3671 L247.607,22.7555 L256.337,33.3671 L261.365,33.3671 Z" id="Shape" fill="#000000" fill-rule="nonzero"></path>
        </g>
    </g>
</svg>